<?xml version="1.0" encoding="UTF-8"?>
<svg id="_레이어_2" data-name="레이어_2" xmlns="http://www.w3.org/2000/svg" viewBox="0 0 379.44 167.96">
  <defs>
    <style>
      .cls-1 {
        fill: #3f51b5;
      }
    </style>
  </defs>
  <g id="_레이어_1-2" data-name="레이어_1">
    <g>
      <path class="cls-1" d="M32.47,159.12c0,3.27-1.25,8.84-13.61,8.84h-5.17c-12.36,0-13.61-6.78-13.61-10.06h7.63c0,.85.53,2.83,3.92,2.83h10.5c2.14,0,2.71-.77,2.71-1.62,0-5.17-24.84,2.46-24.84-11.11,0-3.31,1.25-8.88,13.65-8.88h5.13c12.4,0,13.65,6.78,13.65,10.1h-7.67c0-.89-.48-2.83-3.92-2.83h-10.5c-2.22,0-2.67.73-2.67,1.62,0,4.81,24.8-2.42,24.8,11.11Z"/>
      <path class="cls-1" d="M34.12,139.13h29.04v7.27h-10.82v21.57h-7.63v-21.57h-10.58v-7.27Z"/>
      <path class="cls-1" d="M101.48,153.55c0,13.29-10.02,14.42-15.23,14.42h-6.26c-5.21,0-15.23-1.13-15.23-14.42s10.02-14.42,15.23-14.42h6.26c5.21,0,15.23,1.17,15.23,14.42ZM93.45,153.55c0-3.63-1.01-7.15-5.09-7.15h-10.46c-4.08,0-5.09,3.51-5.09,7.15s1.01,7.19,5.09,7.19h10.46c4.08,0,5.09-3.51,5.09-7.19Z"/>
      <path class="cls-1" d="M111.98,153.55c0,3.67.97,7.19,5.05,7.19h10.5c3.03,0,4.28-1.53,4.85-4.56h8.12c-1.25,10.78-10.26,11.79-15.06,11.79h-6.3c-5.17,0-15.23-1.13-15.23-14.42s10.06-14.42,15.23-14.42h6.3c4.81,0,13.81,1.01,15.06,11.79h-8.12c-.36-2.79-1.82-4.52-4.85-4.52h-10.5c-4.08,0-5.05,3.51-5.05,7.15Z"/>
      <path class="cls-1" d="M178.41,139.13l-14.82,11.99,14.82,16.84h-10.86l-10.18-11.83-6.02,4.89v6.95h-7.63v-28.83h7.63v12.44l15.39-12.44h11.67Z"/>
      <path class="cls-1" d="M204.66,153.55c0,3.67.97,7.19,5.05,7.19h10.5c3.03,0,4.28-1.53,4.85-4.56h8.12c-1.25,10.78-10.26,11.79-15.06,11.79h-6.3c-5.17,0-15.23-1.13-15.23-14.42s10.06-14.42,15.23-14.42h6.3c4.81,0,13.81,1.01,15.06,11.79h-8.12c-.36-2.79-1.82-4.52-4.85-4.52h-10.5c-4.08,0-5.05,3.51-5.05,7.15Z"/>
      <path class="cls-1" d="M257.89,158.68h-3.63c2.75.89,7.19,1.66,14.38,1.66h2.18v7.63c-7.67,0-19.02-1.82-23.02-9.29h-3.76v9.29h-7.63v-28.83h22.66c5.17,0,11.75,1.9,11.75,9.57,0,8.2-7.71,9.98-12.92,9.98ZM244.04,152.21h14.13c3.11,0,4.56-1.17,4.56-2.95s-.97-2.87-3.43-2.87h-15.27v5.82Z"/>
      <path class="cls-1" d="M311.56,153.71v14.26h-7.63v-7.11h-21.44v7.11h-7.63v-14.26c0-13.25,10.06-14.38,15.23-14.38h6.3c5.17,0,15.18,1.13,15.18,14.38ZM303.93,154.11v-.81c0-3.63-.97-6.74-5.05-6.74h-11.31c-4.08,0-5.09,3.11-5.09,6.74v.81h21.44Z"/>
      <path class="cls-1" d="M346.97,139.13v7.15h-23.71v4h23.71v7.55h-23.71v10.14h-7.67v-28.83h31.38Z"/>
      <path class="cls-1" d="M350.4,139.13h29.04v7.27h-10.82v21.57h-7.63v-21.57h-10.58v-7.27Z"/>
    </g>
    <g>
      <path class="cls-1" d="M138.24,53.21c0,2.34-2.07,4.12-4.39,3.81-14.89-1.98-26.34-13.93-26.34-28.36S118.97,2.27,133.86.29c2.32-.31,4.39,1.47,4.39,3.81v49.11Z"/>
      <path class="cls-1" d="M152.49,97.52c0,2.34,2.07,4.12,4.39,3.81,14.89-1.98,26.34-13.93,26.34-28.36s-11.45-26.38-26.34-28.36c-2.32-.31-4.39,1.47-4.39,3.81v49.11Z"/>
      <circle class="cls-1" cx="163.31" cy="19.91" r="19.91"/>
      <circle class="cls-1" cx="127.43" cy="81.47" r="19.91"/>
      <path class="cls-1" d="M265.21,75.37l-23.68-22.2c-1.43-1.35-1.43-3.62,0-4.97l23.68-22.2,8.58-8.62c1.38-1.39,1.32-3.67-.16-4.96C264.52,4.49,252.55-.23,239.47,0c-26.43.48-48.29,21.54-49.67,47.94-1.53,29.23,21.71,53.41,50.61,53.41,12.71,0,24.32-4.68,33.22-12.41,1.49-1.29,1.56-3.57.17-4.97l-8.58-8.62Z"/>
    </g>
  </g>
</svg>