<svg width="31" height="30" viewBox="0 0 31 30" fill="none" xmlns="http://www.w3.org/2000/svg">
<path d="M20.9374 28.4375H10.9374C6.66238 28.4375 4.99988 26.775 4.99988 22.5V12.5C4.99988 11.9875 5.42488 11.5625 5.93738 11.5625H25.9374C26.4499 11.5625 26.8749 11.9875 26.8749 12.5V22.5C26.8749 26.775 25.2124 28.4375 20.9374 28.4375ZM6.87488 13.4375V22.5C6.87488 25.725 7.71238 26.5625 10.9374 26.5625H20.9374C24.1624 26.5625 24.9999 25.725 24.9999 22.5V13.4375H6.87488Z" fill="#292D32"/>
<path d="M25.3499 13.4375H6.59985C4.41235 13.4375 3.16235 12.1875 3.16235 10V8.75C3.16235 6.5625 4.41235 5.3125 6.59985 5.3125H25.3499C27.4749 5.3125 28.7874 6.625 28.7874 8.75V10C28.7874 12.125 27.4749 13.4375 25.3499 13.4375ZM6.59985 7.1875C5.46235 7.1875 5.03735 7.6125 5.03735 8.75V10C5.03735 11.1375 5.46235 11.5625 6.59985 11.5625H25.3499C26.4499 11.5625 26.9124 11.1 26.9124 10V8.75C26.9124 7.65 26.4499 7.1875 25.3499 7.1875H6.59985Z" fill="#292D32"/>
<path d="M15.5248 7.18748H8.62485C8.36235 7.18748 8.11235 7.07498 7.93735 6.88748C7.17485 6.04998 7.19985 4.76248 7.99985 3.96248L9.77485 2.18748C10.5998 1.36248 11.9623 1.36248 12.7873 2.18748L16.1873 5.58748C16.4498 5.84998 16.5373 6.26248 16.3873 6.61248C16.2498 6.96248 15.9123 7.18748 15.5248 7.18748ZM9.31235 5.31248H13.2748L11.4623 3.51248C11.3623 3.41248 11.1998 3.41248 11.0998 3.51248L9.32485 5.28748C9.32485 5.29998 9.31235 5.29998 9.31235 5.31248Z" fill="#292D32"/>
<path d="M23.3123 7.18748H16.4123C16.0373 7.18748 15.6873 6.96248 15.5498 6.61248C15.3998 6.26248 15.4873 5.86248 15.7498 5.58748L19.1498 2.18748C19.9748 1.36248 21.3373 1.36248 22.1623 2.18748L23.9373 3.96248C24.7373 4.76248 24.7748 6.04998 23.9998 6.88748C23.8248 7.07498 23.5748 7.18748 23.3123 7.18748ZM18.6873 5.31248H22.6498C22.6373 5.29998 22.6373 5.29998 22.6248 5.28748L20.8498 3.51248C20.7498 3.41248 20.5873 3.41248 20.4873 3.51248L18.6873 5.31248Z" fill="#292D32"/>
<path d="M13.3999 21.125C13.0499 21.125 12.6874 21.0375 12.3624 20.8625C11.6499 20.475 11.2124 19.7375 11.2124 18.9375V12.5C11.2124 11.9875 11.6374 11.5625 12.1499 11.5625H19.6999C20.2124 11.5625 20.6374 11.9875 20.6374 12.5V18.9125C20.6374 19.725 20.1999 20.4625 19.4874 20.8375C18.7749 21.225 17.9124 21.175 17.2374 20.725L16.1249 19.975C16.0249 19.9 15.8874 19.9 15.7749 19.975L14.5999 20.75C14.2374 21 13.8124 21.125 13.3999 21.125ZM13.0874 13.4375V18.925C13.0874 19.0875 13.1874 19.1625 13.2499 19.2C13.3124 19.2375 13.4374 19.275 13.5749 19.1875L14.7499 18.4125C15.4874 17.925 16.4374 17.925 17.1624 18.4125L18.2749 19.1625C18.4124 19.25 18.5374 19.2125 18.5999 19.175C18.6624 19.1375 18.7624 19.0625 18.7624 18.9V13.425H13.0874V13.4375Z" fill="#292D32"/>
</svg>
