<svg width="31" height="30" viewBox="0 0 31 30" fill="none" xmlns="http://www.w3.org/2000/svg">
<path d="M26.7095 28.4375H4.20947C3.69697 28.4375 3.27197 28.0125 3.27197 27.5C3.27197 26.9875 3.69697 26.5625 4.20947 26.5625H26.7095C27.222 26.5625 27.647 26.9875 27.647 27.5C27.647 28.0125 27.222 28.4375 26.7095 28.4375Z" fill="#292D32"/>
<path d="M7.45944 24.6875H5.45947C4.25947 24.6875 3.27197 23.7 3.27197 22.5V11.725C3.27197 10.525 4.25947 9.53748 5.45947 9.53748H7.45944C8.65944 9.53748 9.64694 10.525 9.64694 11.725V22.5C9.64694 23.7 8.65944 24.6875 7.45944 24.6875ZM5.45947 11.4C5.28447 11.4 5.14697 11.5375 5.14697 11.7125V22.5C5.14697 22.675 5.28447 22.8125 5.45947 22.8125H7.45944C7.63444 22.8125 7.77194 22.675 7.77194 22.5V11.725C7.77194 11.55 7.63444 11.4125 7.45944 11.4125H5.45947V11.4Z" fill="#292D32"/>
<path d="M16.4597 24.6875H14.4597C13.2597 24.6875 12.2722 23.7 12.2722 22.5V7.73755C12.2722 6.53755 13.2597 5.55005 14.4597 5.55005H16.4597C17.6597 5.55005 18.6472 6.53755 18.6472 7.73755V22.5C18.6472 23.7 17.6597 24.6875 16.4597 24.6875ZM14.4597 7.42505C14.2847 7.42505 14.1472 7.56255 14.1472 7.73755V22.5C14.1472 22.675 14.2847 22.8125 14.4597 22.8125H16.4597C16.6347 22.8125 16.7722 22.675 16.7722 22.5V7.73755C16.7722 7.56255 16.6347 7.42505 16.4597 7.42505H14.4597Z" fill="#292D32"/>
<path d="M25.4593 24.6875H23.4594C22.2594 24.6875 21.2719 23.7 21.2719 22.5V3.75C21.2719 2.55 22.2594 1.5625 23.4594 1.5625H25.4593C26.6593 1.5625 27.6468 2.55 27.6468 3.75V22.5C27.6468 23.7 26.6593 24.6875 25.4593 24.6875ZM23.4594 3.4375C23.2844 3.4375 23.1469 3.575 23.1469 3.75V22.5C23.1469 22.675 23.2844 22.8125 23.4594 22.8125H25.4593C25.6343 22.8125 25.7718 22.675 25.7718 22.5V3.75C25.7718 3.575 25.6343 3.4375 25.4593 3.4375H23.4594Z" fill="#292D32"/>
</svg>
