<svg width="31" height="30" viewBox="0 0 31 30" fill="none" xmlns="http://www.w3.org/2000/svg">
<path d="M23.0734 28.4375H8.59844C5.17344 28.4375 2.39844 25.65 2.39844 22.225V12.9625C2.39844 11.2625 3.44844 9.12503 4.79844 8.07503L11.5359 2.82503C13.5609 1.25003 16.7984 1.17503 18.8984 2.65003L26.6234 8.06253C28.1109 9.10003 29.2734 11.325 29.2734 13.1375V22.2375C29.2734 25.65 26.4984 28.4375 23.0734 28.4375ZM12.6859 4.30003L5.94844 9.55003C5.06094 10.25 4.27344 11.8375 4.27344 12.9625V22.225C4.27344 24.6125 6.21094 26.5625 8.59844 26.5625H23.0734C25.4609 26.5625 27.3984 24.625 27.3984 22.2375V13.1375C27.3984 11.9375 26.5359 10.275 25.5484 9.60003L17.8234 4.18753C16.3984 3.18753 14.0484 3.23753 12.6859 4.30003Z" fill="white"/>
<path d="M15.8359 23.4375C15.3234 23.4375 14.8984 23.0125 14.8984 22.5V18.75C14.8984 18.2375 15.3234 17.8125 15.8359 17.8125C16.3484 17.8125 16.7734 18.2375 16.7734 18.75V22.5C16.7734 23.0125 16.3484 23.4375 15.8359 23.4375Z" fill="white"/>
</svg>
