<svg width="31" height="30" viewBox="0 0 31 30" fill="none" xmlns="http://www.w3.org/2000/svg">
<path d="M23.0733 28.4375H8.59832C5.17332 28.4375 2.39832 25.65 2.39832 22.225V12.9625C2.39832 11.2625 3.44832 9.12497 4.79832 8.07497L11.5358 2.82497C13.5608 1.24997 16.7983 1.17497 18.8983 2.64997L26.6233 8.06247C28.1108 9.09997 29.2733 11.325 29.2733 13.1375V22.2375C29.2733 25.65 26.4983 28.4375 23.0733 28.4375ZM12.6858 4.29997L5.94832 9.54997C5.06082 10.25 4.27332 11.8375 4.27332 12.9625V22.225C4.27332 24.6125 6.21082 26.5625 8.59832 26.5625H23.0733C25.4608 26.5625 27.3983 24.625 27.3983 22.2375V13.1375C27.3983 11.9375 26.5358 10.275 25.5483 9.59997L17.8233 4.18747C16.3983 3.18747 14.0483 3.23747 12.6858 4.29997Z" fill="#292D32"/>
<path d="M15.8358 23.4375C15.3233 23.4375 14.8983 23.0125 14.8983 22.5V18.75C14.8983 18.2375 15.3233 17.8125 15.8358 17.8125C16.3483 17.8125 16.7733 18.2375 16.7733 18.75V22.5C16.7733 23.0125 16.3483 23.4375 15.8358 23.4375Z" fill="#292D32"/>
</svg>
