<svg width="31" height="30" viewBox="0 0 31 30" fill="none" xmlns="http://www.w3.org/2000/svg">
<path d="M15.8693 16.9125C15.8443 16.9125 15.8068 16.9125 15.7818 16.9125C15.7443 16.9125 15.6943 16.9125 15.6568 16.9125C12.8193 16.825 10.6943 14.6125 10.6943 11.8875C10.6943 9.11248 12.9568 6.84998 15.7318 6.84998C18.5068 6.84998 20.7693 9.11248 20.7693 11.8875C20.7568 14.625 18.6193 16.825 15.9068 16.9125C15.8818 16.9125 15.8818 16.9125 15.8693 16.9125ZM15.7193 8.71248C13.9693 8.71248 12.5568 10.1375 12.5568 11.875C12.5568 13.5875 13.8943 14.975 15.5943 15.0375C15.6318 15.025 15.7568 15.025 15.8818 15.0375C17.5568 14.95 18.8693 13.575 18.8818 11.875C18.8818 10.1375 17.4693 8.71248 15.7193 8.71248Z" fill="#292D32"/>
<path d="M15.7193 28.4376C12.3568 28.4376 9.14428 27.1876 6.65678 24.9126C6.43178 24.7126 6.33178 24.4126 6.35678 24.1251C6.51928 22.6376 7.44428 21.2501 8.98178 20.2251C12.7068 17.7501 18.7443 17.7501 22.4568 20.2251C23.9943 21.2626 24.9193 22.6376 25.0818 24.1251C25.1193 24.4251 25.0068 24.7126 24.7818 24.9126C22.2943 27.1876 19.0818 28.4376 15.7193 28.4376ZM8.31928 23.8751C10.3943 25.6126 13.0068 26.5626 15.7193 26.5626C18.4318 26.5626 21.0443 25.6126 23.1193 23.8751C22.8943 23.1126 22.2943 22.3751 21.4068 21.7751C18.3318 19.7251 13.1193 19.7251 10.0193 21.7751C9.13178 22.3751 8.54428 23.1126 8.31928 23.8751Z" fill="#292D32"/>
<path d="M15.7194 28.4375C8.30686 28.4375 2.28186 22.4125 2.28186 15C2.28186 7.5875 8.30686 1.5625 15.7194 1.5625C23.1319 1.5625 29.1569 7.5875 29.1569 15C29.1569 22.4125 23.1319 28.4375 15.7194 28.4375ZM15.7194 3.4375C9.34436 3.4375 4.15686 8.625 4.15686 15C4.15686 21.375 9.34436 26.5625 15.7194 26.5625C22.0944 26.5625 27.2819 21.375 27.2819 15C27.2819 8.625 22.0944 3.4375 15.7194 3.4375Z" fill="#292D32"/>
</svg>
