<svg width="31" height="30" viewBox="0 0 31 30" fill="none" xmlns="http://www.w3.org/2000/svg">
<path d="M20.9375 28.4375H10.9375C6.6625 28.4375 5 26.775 5 22.5V12.5C5 11.9875 5.425 11.5625 5.9375 11.5625H25.9375C26.45 11.5625 26.875 11.9875 26.875 12.5V22.5C26.875 26.775 25.2125 28.4375 20.9375 28.4375ZM6.875 13.4375V22.5C6.875 25.725 7.7125 26.5625 10.9375 26.5625H20.9375C24.1625 26.5625 25 25.725 25 22.5V13.4375H6.875Z" fill="white"/>
<path d="M25.3501 13.4375H6.6001C4.4126 13.4375 3.1626 12.1875 3.1626 10V8.75C3.1626 6.5625 4.4126 5.3125 6.6001 5.3125H25.3501C27.4751 5.3125 28.7876 6.625 28.7876 8.75V10C28.7876 12.125 27.4751 13.4375 25.3501 13.4375ZM6.6001 7.1875C5.4626 7.1875 5.0376 7.6125 5.0376 8.75V10C5.0376 11.1375 5.4626 11.5625 6.6001 11.5625H25.3501C26.4501 11.5625 26.9126 11.1 26.9126 10V8.75C26.9126 7.65 26.4501 7.1875 25.3501 7.1875H6.6001Z" fill="white"/>
<path d="M15.525 7.18748H8.62497C8.36247 7.18748 8.11247 7.07498 7.93747 6.88748C7.17497 6.04998 7.19997 4.76248 7.99997 3.96248L9.77497 2.18748C10.6 1.36248 11.9625 1.36248 12.7875 2.18748L16.1875 5.58748C16.45 5.84998 16.5375 6.26248 16.3875 6.61248C16.25 6.96248 15.9125 7.18748 15.525 7.18748ZM9.31247 5.31248H13.275L11.4625 3.51248C11.3625 3.41248 11.2 3.41248 11.1 3.51248L9.32497 5.28748C9.32497 5.29998 9.31247 5.29998 9.31247 5.31248Z" fill="white"/>
<path d="M23.3127 7.18748H16.4127C16.0377 7.18748 15.6877 6.96248 15.5502 6.61248C15.4002 6.26248 15.4877 5.86248 15.7502 5.58748L19.1502 2.18748C19.9752 1.36248 21.3377 1.36248 22.1627 2.18748L23.9377 3.96248C24.7377 4.76248 24.7752 6.04998 24.0002 6.88748C23.8252 7.07498 23.5752 7.18748 23.3127 7.18748ZM18.6877 5.31248H22.6502C22.6377 5.29998 22.6377 5.29998 22.6252 5.28748L20.8502 3.51248C20.7502 3.41248 20.5877 3.41248 20.4877 3.51248L18.6877 5.31248Z" fill="white"/>
<path d="M13.3999 21.125C13.0499 21.125 12.6874 21.0375 12.3624 20.8625C11.6499 20.475 11.2124 19.7375 11.2124 18.9375V12.5C11.2124 11.9875 11.6374 11.5625 12.1499 11.5625H19.6999C20.2124 11.5625 20.6374 11.9875 20.6374 12.5V18.9125C20.6374 19.725 20.1999 20.4625 19.4874 20.8375C18.7749 21.225 17.9124 21.175 17.2374 20.725L16.1249 19.975C16.0249 19.9 15.8874 19.9 15.7749 19.975L14.5999 20.75C14.2374 21 13.8124 21.125 13.3999 21.125ZM13.0874 13.4375V18.925C13.0874 19.0875 13.1874 19.1625 13.2499 19.2C13.3124 19.2375 13.4374 19.275 13.5749 19.1875L14.7499 18.4125C15.4874 17.925 16.4374 17.925 17.1624 18.4125L18.2749 19.1625C18.4124 19.25 18.5374 19.2125 18.5999 19.175C18.6624 19.1375 18.7624 19.0625 18.7624 18.9V13.425H13.0874V13.4375Z" fill="white"/>
</svg>
