<svg width="31" height="30" viewBox="0 0 31 30" fill="none" xmlns="http://www.w3.org/2000/svg">
<path d="M26.7095 28.4375H4.20947C3.69697 28.4375 3.27197 28.0125 3.27197 27.5C3.27197 26.9875 3.69697 26.5625 4.20947 26.5625H26.7095C27.222 26.5625 27.647 26.9875 27.647 27.5C27.647 28.0125 27.222 28.4375 26.7095 28.4375Z" fill="white"/>
<path d="M7.45944 24.6875H5.45947C4.25947 24.6875 3.27197 23.7 3.27197 22.5V11.725C3.27197 10.525 4.25947 9.53748 5.45947 9.53748H7.45944C8.65944 9.53748 9.64694 10.525 9.64694 11.725V22.5C9.64694 23.7 8.65944 24.6875 7.45944 24.6875ZM5.45947 11.4C5.28447 11.4 5.14697 11.5375 5.14697 11.7125V22.5C5.14697 22.675 5.28447 22.8125 5.45947 22.8125H7.45944C7.63444 22.8125 7.77194 22.675 7.77194 22.5V11.725C7.77194 11.55 7.63444 11.4125 7.45944 11.4125H5.45947V11.4Z" fill="white"/>
<path d="M16.4599 24.6875H14.46C13.26 24.6875 12.2725 23.7 12.2725 22.5V7.73749C12.2725 6.53749 13.26 5.54999 14.46 5.54999H16.4599C17.6599 5.54999 18.6474 6.53749 18.6474 7.73749V22.5C18.6474 23.7 17.6599 24.6875 16.4599 24.6875ZM14.46 7.42499C14.285 7.42499 14.1475 7.56249 14.1475 7.73749V22.5C14.1475 22.675 14.285 22.8125 14.46 22.8125H16.4599C16.6349 22.8125 16.7724 22.675 16.7724 22.5V7.73749C16.7724 7.56249 16.6349 7.42499 16.4599 7.42499H14.46Z" fill="white"/>
<path d="M25.4594 24.6875H23.4595C22.2595 24.6875 21.272 23.7 21.272 22.5V3.75C21.272 2.55 22.2595 1.5625 23.4595 1.5625H25.4594C26.6594 1.5625 27.6469 2.55 27.6469 3.75V22.5C27.6469 23.7 26.6594 24.6875 25.4594 24.6875ZM23.4595 3.4375C23.2845 3.4375 23.147 3.575 23.147 3.75V22.5C23.147 22.675 23.2845 22.8125 23.4595 22.8125H25.4594C25.6344 22.8125 25.7719 22.675 25.7719 22.5V3.75C25.7719 3.575 25.6344 3.4375 25.4594 3.4375H23.4595Z" fill="white"/>
</svg>
