<svg width="63" height="63" viewBox="0 0 63 63" fill="none" xmlns="http://www.w3.org/2000/svg">
<path d="M31.5022 0C14.2511 0 0.269043 13.9608 0.269043 31.1856C0.269043 48.4104 14.2511 62.3712 31.5022 62.3712C48.7533 62.3712 62.7354 48.4104 62.7354 31.1856C62.7354 13.9608 48.7489 0 31.5022 0ZM31.6278 53.6087C19.3363 53.6087 9.33631 43.624 9.33631 31.3512C9.33631 19.0785 19.3363 9.09374 31.6278 9.09374C35.1928 9.09374 38.7354 9.95341 41.8789 11.5832C44.9193 13.1593 47.5964 15.4517 49.6233 18.2188L49.6502 18.2591L51.8699 21.5232H42.5964L42.1928 21.1202C39.4529 18.3845 35.8161 16.8801 31.9417 16.8801C28.5336 16.8801 25.3094 18.0442 22.7175 20.1889L45.13 42.5673L44.1525 43.5434C40.8924 46.7985 36.556 48.594 31.9417 48.594C27.3273 48.594 22.6233 46.6194 19.3722 43.1718L21.3901 41.2733C24.1569 44.2061 27.9058 45.8224 31.9417 45.8224C35.3498 45.8224 38.574 44.6583 41.1659 42.5136L18.7533 20.1352L19.7309 19.1591C22.991 15.904 27.3273 14.1085 31.9417 14.1085C36.556 14.1085 40.5247 15.7517 43.7309 18.7516H46.5202C44.8744 16.8174 42.8475 15.201 40.6009 14.0324C37.8116 12.5862 34.7892 11.8519 31.6233 11.8519C20.8565 11.8519 12.0986 20.5964 12.0986 31.3468C12.0986 42.0972 20.8565 50.8417 31.6233 50.8417C38.8116 50.8417 45.3991 46.9149 48.8161 40.5927L51.2556 41.9046C47.3542 49.1223 39.8341 53.6043 31.6233 53.6043L31.6278 53.6087Z" fill="#3F51B5"/>
</svg>
